<?xml version="1.0" encoding="utf-8"?>
<!-- Generator: Adobe Illustrator 24.0.2, SVG Export Plug-In . SVG Version: 6.00 Build 0)  -->
<svg version="1.1" id="Layer_1" xmlns="http://www.w3.org/2000/svg" xmlns:xlink="http://www.w3.org/1999/xlink" x="0px" y="0px"
	 viewBox="0 0 751.2 411" style="enable-background:new 0 0 751.2 411;" xml:space="preserve">
<style type="text/css">
	.st0{clip-path:url(#SVGID_2_);fill:#414B59;}
	.st1{clip-path:url(#SVGID_2_);fill:#009CDE;}
	.st2{clip-path:url(#SVGID_2_);fill:#0078BF;}
	.st3{clip-path:url(#SVGID_2_);fill:#0070BA;}
	.st4{clip-path:url(#SVGID_2_);fill:#007BBB;}
	.st5{clip-path:url(#SVGID_2_);fill:#009EC8;}
</style>
<g>
	<defs>
		<rect id="SVGID_1_" x="74.9" y="68" width="601.4" height="275.1"/>
	</defs>
	<clipPath id="SVGID_2_">
		<use xlink:href="#SVGID_1_"  style="overflow:visible;"/>
	</clipPath>
	<path class="st0" d="M197.8,190.2l14,0c6.9,0,11.9,3.5,11.9,9.8c0,4.3-2.3,7-4.6,8.2v0.1c4.2,1.2,6.2,5.1,6.2,9
		c0,7.7-6.1,11.1-13.2,11.1l-14.1,0L197.8,190.2z M211.8,205.7c3,0,4.6-2.2,4.6-4.9c0-2.7-1.6-4.7-4.8-4.7l-6.9,0l0,9.6L211.8,205.7
		z M212.5,222.4c3.5,0,5.4-2.3,5.4-5.6c0-3.2-2-5.5-5.4-5.5l-7.6,0l0,11.1L212.5,222.4z"/>
	
		<rect x="229.2" y="200.8" transform="matrix(1 -3.042978e-03 3.042978e-03 1 -0.6519 0.7088)" class="st0" width="6.8" height="27.5"/>
	
		<rect x="241.7" y="190" transform="matrix(1 -3.025381e-03 3.025381e-03 1 -0.6316 0.7426)" class="st0" width="6.8" height="38.3"/>
	<path class="st0" d="M279.7,200.5l0.1,26c0,9.4-7.3,13-14.5,13c-3.5,0-7.1-0.9-9.8-2.3l2.1-5.4c0,0,3.4,1.8,7.6,1.8
		c4.2,0,7.8-1.8,7.7-6.8l0-1.3c0-0.6,0-1.5,0-1.5H273c-1.6,2.3-4,3.6-7.6,3.6c-7.9,0-12.4-6.3-12.4-13.9c0-7.5,4.2-13.7,12.1-13.7
		c6.4,0,8.5,3.9,8.5,3.9h0.1c0,0,0-3.1,0-3.4L279.7,200.5z M273.2,213.8c0-6.3-3.1-7.9-6.9-7.9c-4.2,0-6.4,3-6.4,7.7
		c0,4.8,2.5,8.3,6.9,8.3C270.1,221.9,273.2,220,273.2,213.8"/>
	<path class="st0" d="M297.9,200c7.9,0,12.2,5.7,12.2,13c0,0.8-0.2,2.5-0.2,2.5l-19,0.1c0.6,4.8,4.1,7.4,8.3,7.4
		c4.4,0,7.7-3.1,7.7-3.1l2.9,4.7c0,0-4.2,4.2-11,4.2c-9.1,0-14.8-6.5-14.8-14.3C284,206,289.7,200,297.9,200 M303.1,210.8
		c-0.1-3.3-2.4-5.5-5.2-5.5c-3.5,0-6,2.1-6.7,5.6L303.1,210.8z"/>
	<path class="st0" d="M340.2,228l-3.7-9.8l-12.9,0l-3.4,9.8l-8,0l14-38.3l7.4,0l13.9,38.2L340.2,228z M334.9,212.4l-4.8-14.8h-0.1
		l-4.8,14.9L334.9,212.4z"/>
	<path class="st0" d="M368.8,227.9c0-0.6,0-2.9,0-2.9h-0.1c0,0-2.3,3.6-8.6,3.6c-7.4,0-12.3-5.8-12.3-14.4c0-8.7,5.2-14.4,12.5-14.4
		c6,0,7.9,3,7.9,3l0-13.2l6.8,0l0.1,38.3L368.8,227.9z M368.5,214.1c0-4.3-2.2-8.5-6.8-8.4c-3.8,0-6.9,3.1-6.9,8.5
		c0,5.2,2.8,8.6,6.8,8.6C365.2,222.8,368.5,220.2,368.5,214.1"/>
	<path class="st0" d="M444.1,227.7l0-15.9c0-3.1-1-5.7-4.5-5.7c-4.9,0-6.3,4.1-6.3,7.6c0,1.1,0,14.1,0,14.1l-6.8,0l0-16.7
		c0-3-1.1-5.2-4.7-5.2c-3.9,0-6.1,2.7-6.1,6.7c0,1.1,0,1.9,0,3.1l0,12.1l-6.8,0l-0.1-27.1l6.5,0c0,0.6,0,2.7,0,2.7
		c2.1-2.8,5.4-3.8,9-3.8c3.5,0,6.7,1.5,7.8,5.3c1.8-3.7,5.3-5,9.7-5c4,0,9,3.3,9,10.5l0.1,17.3L444.1,227.7z"/>
	<path class="st0" d="M236.9,193.2c0,2.4-2,4.4-4.4,4.4c-2.4,0-4.4-2-4.4-4.4c0-2.4,2-4.4,4.4-4.4
		C235,188.8,236.9,190.8,236.9,193.2"/>
	<path class="st0" d="M403.5,227.8l-0.1-17.2c0-6.1-2.7-10.9-11.9-10.9c-2.2,0-6.6,0.8-9.9,3.2l2.9,4.7c2.1-1.9,5.7-2.6,7-2.6
		c3.5,0,5.1,1,5.1,4.9v0.2l-0.9,0c-4.5,0-16.3,1.2-16.3,9.8c0,5.5,4.5,8.6,9.4,8.5c6.2,0,8.3-3.7,8.3-3.7s0,2.3,0,3L403.5,227.8z
		 M396.7,216.5c0,3.9-2.6,6.6-6.2,6.6c-2.8,0-4.2-1.7-4.2-3.5c0-3.8,5.6-4.8,9.2-4.8l1.2,0L396.7,216.5z"/>
	<polygon class="st1" points="468.5,194.8 457,194.8 457,190.6 484.9,190.6 484.9,194.8 473.4,194.8 473.4,228.3 468.5,228.3 	"/>
	<path class="st1" d="M484.9,215.7c0.1,6.6,4.4,9.4,9.3,9.4c3.5,0,5.6-0.6,7.5-1.4l0.8,3.5c-1.7,0.8-4.7,1.7-9,1.7
		c-8.3,0-13.3-5.5-13.3-13.6c0-8.2,4.8-14.6,12.7-14.6c8.8,0,11.2,7.8,11.2,12.7c0,1-0.1,1.8-0.2,2.3H484.9z M499.3,212.1
		c0.1-3.1-1.3-8-6.8-8c-5,0-7.2,4.6-7.5,8H499.3z"/>
	<path class="st1" d="M512.2,213.6h0.1c0.7-0.9,1.6-2.1,2.4-3.1l7.9-9.3h5.9l-10.4,11.1l11.9,15.9h-6l-9.3-13l-2.5,2.8v10.2h-4.9
		v-39.7h4.9V213.6z"/>
	<path class="st1" d="M531.7,208.6c0-2.8-0.1-5.1-0.2-7.3h4.4l0.3,4.5h0.1c1.3-2.6,4.5-5.1,8.9-5.1c3.7,0,9.6,2.2,9.6,11.5v16.1
		h-4.9v-15.6c0-4.4-1.6-8-6.3-8c-3.2,0-5.8,2.3-6.6,5c-0.2,0.6-0.3,1.5-0.3,2.3v16.3h-4.9V208.6z"/>
	<path class="st1" d="M584.4,214.5c0,10-6.9,14.4-13.5,14.4c-7.3,0-13-5.4-13-13.9c0-9,5.9-14.4,13.4-14.4
		C579.2,200.6,584.4,206.3,584.4,214.5 M563,214.8c0,5.9,3.4,10.4,8.2,10.4c4.7,0,8.2-4.4,8.2-10.5c0-4.6-2.3-10.4-8.1-10.4
		C565.5,204.3,563,209.7,563,214.8"/>
	<rect x="587.8" y="188.6" class="st1" width="4.9" height="39.7"/>
	<path class="st1" d="M622.7,214.5c0,10-6.9,14.4-13.5,14.4c-7.3,0-13-5.4-13-13.9c0-9,5.9-14.4,13.4-14.4
		C617.4,200.6,622.7,206.3,622.7,214.5 M601.2,214.8c0,5.9,3.4,10.4,8.2,10.4c4.7,0,8.2-4.4,8.2-10.5c0-4.6-2.3-10.4-8.1-10.4
		C603.7,204.3,601.2,209.7,601.2,214.8"/>
	<path class="st1" d="M619.5,236.1c2.2-0.2,4.2-0.8,5.4-2.1c1.3-1.6,1.8-3.7,1.8-10.2v-22.6h4.9v24.5c0,5.2-0.8,8.7-3.2,11.1
		c-2.2,2.2-5.8,3.1-8.4,3.1L619.5,236.1z M632.2,193.6c0.1,1.6-1.1,3-3.1,3c-1.8,0-3-1.4-3-3c0-1.7,1.3-3.1,3.1-3.1
		C631,190.6,632.2,191.9,632.2,193.6"/>
	<path class="st1" d="M642.3,193.6c0.1,1.7-1.2,3-3.1,3c-1.7,0-3-1.3-3-3c0-1.7,1.3-3.1,3.1-3.1
		C641.2,190.6,642.3,191.9,642.3,193.6 M636.9,201.2h4.9v27h-4.9V201.2z"/>
	<path class="st0" d="M140.7,249.5c-24.2,0-43.9-19.7-43.9-44c0-24.2,19.7-44,43.9-44h0c11.7,0,22.8,4.6,31.1,12.9
		c8.3,8.3,12.9,19.3,12.9,31.1C184.7,229.7,165,249.5,140.7,249.5 M140.7,168c-20.7,0-37.5,16.8-37.5,37.5
		c0,20.7,16.8,37.5,37.5,37.5c20.7,0,37.5-16.8,37.5-37.5c0-10-3.9-19.4-11-26.5C160.2,171.9,150.8,168,140.7,168"/>
	<path class="st0" d="M140.7,211.7c-3.6,0-6.5-2.9-6.5-6.5c0-3.6,2.9-6.5,6.5-6.5s6.5,2.9,6.5,6.5
		C147.3,208.7,144.3,211.7,140.7,211.7"/>
	<path class="st2" d="M158.5,221.7c-1.1,0-2.3-0.3-3.3-0.9c-3.1-1.8-4.2-5.8-2.4-8.9c1.2-2,3.3-3.3,5.7-3.3c1.1,0,2.3,0.3,3.3,0.9
		c1.5,0.9,2.6,2.3,3,4c0.5,1.7,0.2,3.4-0.7,5C163,220.4,160.8,221.7,158.5,221.7"/>
	<path class="st1" d="M158.9,201.2c-2.3,0-4.5-1.3-5.7-3.3c-0.9-1.5-1.1-3.3-0.7-5c0.5-1.7,1.5-3.1,3-4c1-0.6,2.1-0.9,3.3-0.9
		c2.3,0,4.5,1.3,5.7,3.3c0.9,1.5,1.1,3.3,0.7,5c-0.5,1.7-1.5,3.1-3,4C161.1,200.9,160,201.2,158.9,201.2"/>
	<path class="st3" d="M140.7,190.7c-3.6,0-6.5-2.9-6.5-6.5c0-3.6,2.9-6.5,6.5-6.5c3.6,0,6.5,2.9,6.5,6.5
		C147.3,187.8,144.3,190.7,140.7,190.7L140.7,190.7z"/>
	<path class="st4" d="M122.6,201.2c-1.1,0-2.3-0.3-3.3-0.9c-3.1-1.8-4.2-5.8-2.4-8.9c1.2-2,3.3-3.3,5.7-3.3c1.1,0,2.3,0.3,3.3,0.9
		c1.5,0.9,2.6,2.3,3,4c0.5,1.7,0.2,3.4-0.7,5C127.1,199.9,124.9,201.2,122.6,201.2"/>
	<path class="st5" d="M122.7,222c-2.3,0-4.5-1.3-5.7-3.3c-0.9-1.5-1.1-3.3-0.7-5c0.5-1.7,1.5-3.1,3-4c1-0.6,2.1-0.9,3.3-0.9
		c2.3,0,4.5,1.3,5.7,3.3c0.9,1.5,1.1,3.3,0.7,5c-0.5,1.7-1.5,3.1-3,4C125,221.7,123.8,222,122.7,222"/>
	<path class="st0" d="M135,245.6v-22.1c0-3.2,2.6-5.8,5.8-5.8s5.8,2.6,5.8,5.8v22.1"/>
</g>
</svg>
